<svg version="1.1" id="Layer_1" xmlns="http://www.w3.org/2000/svg" xmlns:xlink="http://www.w3.org/1999/xlink" width="100%" height="75px" preserveAspectRatio="xMidYMid meet"
	 viewBox="0 0 812.7 288.5" xml:space="preserve">
<style type="text/css">
	.st0{fill:#00376E;}
	.st1{fill:#0066CC;}
	.st2{opacity:0.2;fill:#00376E;enable-background:new    ;}
	.st3{fill:#8A8C8E;}
</style>
<title>PVLG-Steeltoe-2019</title>
<polygon class="st0" points="0,216.3 124.9,288.5 62.4,180.3 "/>
<polygon class="st1" points="124.9,0 87.5,21.6 0,72.1 62.4,180.3 124.9,288.5 249.8,216.3 "/>
<polyline class="st2" points="219.3,163.4 0,72.1 0,72.1 124.9,0 "/>
<polygon class="st0" points="124.9,0 0,72.1 124.9,144.3 124.9,144.3 249.8,72.1 "/>
<path class="st0" d="M310,136.7c3.7,1.6,7.6,2.8,11.6,3.6c4.3,1.1,8.6,2.4,12.8,4c3.3,1.3,6.2,3.4,8.5,6.1c2.4,2.8,3.5,6.4,3.5,11
	c0.1,5.5-2.4,10.7-6.7,14.1c-4.5,3.7-10.8,5.6-19,5.6c-8.5,0.1-16.8-2-24.2-6c-1.5-1-2.3-2.6-2.2-4.4c0-1.4,0.5-2.7,1.5-3.7
	c0.9-1.1,2.3-1.6,3.7-1.6c0.8,0,1.7,0.2,2.4,0.5c2.8,1.2,5.6,2.2,8.5,2.9c3.1,0.8,6.4,1.1,9.6,1.1c9.9,0,14.8-3.2,14.8-9.5
	c0-2-1.1-3.6-3.4-4.7c-3.6-1.5-7.3-2.7-11.1-3.6c-4.4-1-8.8-2.3-13-3.9c-3.4-1.3-6.4-3.4-8.8-6.1c-2.5-3-3.8-6.8-3.7-10.7
	c-0.2-5.8,2.3-11.4,6.7-15.2c4.5-3.9,10.9-5.9,19.3-5.9c6.6,0,13.1,1.1,19.3,3.3c1.2,0.3,2.2,1,2.9,2c1.5,2.1,1.3,4.9-0.5,6.8
	c-1,1-2.4,1.6-3.8,1.6c-0.6,0-1.2-0.1-1.7-0.3c-4.9-1.6-10.1-2.4-15.2-2.4c-4.8,0-8.6,0.9-11.3,2.6s-4,4-4,6.7
	C306.2,133.2,307.7,135.6,310,136.7z"/>
<path class="st0" d="M398.3,170.6c0.9,0.9,1.5,2.1,1.5,3.4c0,2-1.2,3.9-3,4.7c-3.5,1.6-7.2,2.4-11,2.4c-13,0-19.4-5.9-19.4-17.6
	v-41.3h-9.6c-1.4,0-2.5-1.1-2.5-2.4c0,0,0-0.1,0-0.1c0-0.9,0.4-1.7,1.2-2.2l18.2-17.8c0.6-0.7,1.4-1.1,2.2-1.2
	c0.7,0,1.3,0.3,1.8,0.8c0.5,0.5,0.7,1.2,0.7,1.9v10.6h15c2.8-0.1,5.1,2,5.2,4.8c0,0.1,0,0.3,0,0.4c0,1.4-0.5,2.7-1.5,3.7
	c-1,1-2.3,1.6-3.7,1.5h-15v40.2c0,3.4,0.8,5.7,2.5,6.6c1.9,1,4,1.5,6.2,1.4c1.8,0,3.6-0.3,5.3-0.8c0.3-0.1,0.7-0.2,1.1-0.3
	c0.5-0.1,1-0.1,1.5-0.1C396.2,169.2,397.4,169.7,398.3,170.6z"/>
<path class="st0" d="M468.7,166.5c1.1,0.9,1.6,2.3,1.6,3.7c0,2-1.2,3.6-3.5,5c-3.2,1.9-6.7,3.3-10.3,4.4c-4.3,1.1-8.7,1.6-13.1,1.5
	c-10.8,0-19.3-3.1-25.4-9.2s-9.1-14.9-9.1-26c-0.1-6,1.1-12,3.5-17.6c2.2-5.2,5.9-9.7,10.6-12.9c4.8-3.3,10.7-5,17.8-5
	c6-0.2,12,1.4,17.1,4.6c4.7,3,8.5,7.3,10.9,12.3c2.5,5.2,3.8,10.9,3.7,16.7c0,1.6-0.6,3.1-1.7,4.3c-1.2,1.2-2.8,1.8-4.5,1.7h-45.2
	c0.7,6.2,3,11,6.9,14.5c3.9,3.5,9.4,5.2,16.4,5.2c3.3,0.1,6.6-0.3,9.8-1.1c2.8-0.7,5.6-1.7,8.2-3c0.8-0.3,1.6-0.5,2.4-0.5
	C466.3,165,467.7,165.5,468.7,166.5z M431.9,122.7c-3,1.4-5.5,3.7-7.3,6.5c-2.1,3.3-3.2,7.1-3.3,10.9h39.3
	c-0.1-3.9-1.3-7.7-3.4-10.9c-1.8-2.8-4.4-5-7.4-6.5c-2.8-1.3-5.8-2.1-8.9-2.1C437.8,120.6,434.7,121.4,431.9,122.7z"/>
<path class="st0" d="M544.6,166.5c1.1,1,1.6,2.3,1.6,3.8c0,2-1.2,3.6-3.5,5c-3.2,1.9-6.7,3.3-10.3,4.4c-4.3,1.1-8.7,1.6-13.1,1.5
	c-10.8,0-19.3-3.1-25.4-9.2s-9.1-14.9-9.1-26c-0.1-6.1,1.1-12.1,3.5-17.6c2.2-5.2,5.9-9.7,10.7-12.9c4.8-3.3,10.7-5,17.8-5
	c6-0.2,12,1.4,17.1,4.6c4.7,3,8.5,7.3,10.9,12.3c2.5,5.2,3.8,10.9,3.7,16.7c0,1.6-0.6,3.1-1.7,4.3c-1.2,1.2-2.8,1.8-4.5,1.7h-45.2
	c0.7,6.2,3,11,6.9,14.5c3.9,3.5,9.4,5.2,16.4,5.2c3.3,0.1,6.6-0.3,9.8-1.1c2.8-0.7,5.6-1.7,8.2-3c0.8-0.3,1.6-0.5,2.4-0.5
	C542.2,165,543.6,165.5,544.6,166.5z M507.8,122.7c-3,1.4-5.5,3.7-7.3,6.5c-2.1,3.3-3.2,7.1-3.3,10.9h39.3
	c-0.1-3.9-1.3-7.7-3.4-10.9c-1.8-2.8-4.4-5-7.4-6.5c-2.8-1.3-5.8-2.1-8.9-2.1C513.7,120.6,510.7,121.4,507.8,122.7z"/>
<path class="st0" d="M576.3,83.5c1.1,1.2,1.8,2.8,1.8,4.4v86.5c0,1.6-0.6,3.2-1.8,4.3c-1.2,1.1-2.7,1.8-4.3,1.8c-3.3,0-6-2.7-6-6
	V87.9c0-1.6,0.6-3.2,1.8-4.3c1.1-1.2,2.7-1.8,4.3-1.8C573.6,81.7,575.2,82.3,576.3,83.5z"/>
<path class="st0" d="M636.7,170.6c0.9,0.9,1.5,2.1,1.5,3.4c0,2-1.2,3.9-3,4.7c-3.5,1.6-7.2,2.4-11,2.4c-13,0-19.4-5.9-19.4-17.6
	v-41.3h-9.5c-1.4,0-2.5-1.1-2.5-2.5c0,0,0,0,0-0.1c0-0.9,0.5-1.7,1.2-2.2L612,99.6c0.6-0.7,1.4-1.1,2.3-1.2c0.7,0,1.3,0.3,1.8,0.8
	c0.5,0.5,0.7,1.2,0.7,1.9v10.6h15c2.8-0.1,5.1,2,5.2,4.8c0,0.1,0,0.3,0,0.4c0,1.4-0.5,2.7-1.5,3.7c-1,1-2.3,1.6-3.7,1.5h-15v40.2
	c0,3.4,0.8,5.7,2.5,6.6c1.9,1,4,1.5,6.2,1.4c1.8,0,3.6-0.3,5.3-0.8c0.3-0.1,0.7-0.2,1.1-0.3c0.5-0.1,1-0.1,1.5-0.1
	C634.7,169.2,635.9,169.7,636.7,170.6z"/>
<path class="st0" d="M699.2,114.8c5.1,2.9,9.3,7.2,12,12.5c5.7,11.7,5.7,25.3,0,37c-2.7,5.2-6.9,9.6-12,12.5
	c-11.2,5.9-24.6,5.9-35.8,0c-5.1-2.9-9.3-7.2-11.9-12.5c-5.6-11.7-5.6-25.3,0-37c2.7-5.2,6.8-9.6,12-12.5
	C674.6,108.9,688,108.9,699.2,114.8L699.2,114.8z M691.8,167.4c3.5-1.8,6.3-4.6,8.3-8c2.2-3.7,3.3-8.3,3.3-13.9s-1.1-10.1-3.3-13.8
	c-1.9-3.4-4.8-6.2-8.3-7.9c-3.3-1.6-6.8-2.5-10.5-2.5c-3.7,0-7.3,0.8-10.6,2.5c-3.5,1.8-6.3,4.5-8.2,7.9c-2.1,3.7-3.2,8.2-3.2,13.8
	s1.1,10.2,3.2,13.9c1.9,3.4,4.7,6.2,8.2,8c3.3,1.7,6.9,2.5,10.6,2.5C685,170,688.6,169.1,691.8,167.4z"/>
<path class="st0" d="M788.1,166.5c1.1,0.9,1.6,2.3,1.6,3.7c0,2-1.2,3.6-3.5,5c-3.2,1.9-6.7,3.3-10.3,4.4c-4.3,1.1-8.7,1.6-13.1,1.5
	c-10.8,0-19.3-3.1-25.4-9.2s-9.1-14.9-9.1-26c-0.1-6,1.1-12,3.5-17.5c2.2-5.2,5.9-9.7,10.7-12.9c4.8-3.3,10.7-5,17.8-5
	c6-0.2,12,1.4,17.1,4.6c4.7,3,8.5,7.3,10.9,12.3c2.5,5.2,3.8,10.9,3.7,16.7c0,1.6-0.6,3.1-1.7,4.3c-1.2,1.2-2.8,1.8-4.5,1.7h-45.2
	c0.7,6.2,3,11,6.9,14.5c3.9,3.5,9.3,5.2,16.4,5.2c3.3,0.1,6.6-0.3,9.8-1.1c2.8-0.7,5.6-1.7,8.2-3c0.8-0.3,1.6-0.5,2.4-0.5
	C785.7,165.1,787.1,165.5,788.1,166.5z M751.3,122.7c-3,1.4-5.5,3.7-7.3,6.5c-2.1,3.3-3.2,7.1-3.3,10.9H780
	c-0.1-3.9-1.3-7.7-3.4-10.9c-1.8-2.8-4.4-5-7.4-6.5c-2.8-1.3-5.8-2.1-8.9-2.1C757.2,120.6,754.1,121.4,751.3,122.7z"/>
<path class="st0" d="M804.5,126.9c-4.5,0-8.2-3.7-8.2-8.2s3.7-8.2,8.2-8.2c4.5,0,8.2,3.7,8.2,8.2c0,0,0,0,0,0
	C812.7,123.2,809,126.9,804.5,126.9z M804.5,111.7c-3.9,0-7,3.1-7,7s3.1,7,7,7s7-3.1,7-7c0-3.8-3-7-6.9-7
	C804.6,111.7,804.6,111.7,804.5,111.7L804.5,111.7z M806.8,123.4l-2.4-3.7h-1.6v3.7h-1.3V114h3.8c1.6-0.1,3,1.2,3.1,2.8
	c0,0,0,0,0,0.1c0,1.4-1,2.6-2.4,2.8l2.5,3.8H806.8z M805.2,115.2h-2.5v3.3h2.5c0.9,0.1,1.7-0.6,1.8-1.5c0.1-0.9-0.6-1.7-1.5-1.8
	C805.4,115.2,805.3,115.2,805.2,115.2L805.2,115.2z"/>

</svg>